<svg width="100" height="72" viewBox="0 0 100 72" fill="none" xmlns="http://www.w3.org/2000/svg">
<path d="M17.2657 1.01953C15.3321 1.48828 13.379 3.08984 12.5391 4.90625C12.1095 5.84375 12.0118 6.35156 11.9532 8.10938L11.8751 10.2188H6.75789C2.30477 10.2188 1.58211 10.2578 0.976642 10.5703C-0.136639 11.1172 -0.312421 12.4648 0.625079 13.3438C1.03524 13.7344 1.26961 13.7344 11.8165 13.7344C19.1993 13.7344 22.793 13.793 23.2227 13.9492C23.8477 14.1641 24.4141 14.9648 24.4141 15.668C24.4141 15.8828 24.1993 16.3125 23.9063 16.6445L23.418 17.2305L18.1641 17.2891C12.9884 17.3477 12.8907 17.3477 12.461 17.7969C12.0899 18.1484 11.9923 18.5195 11.9141 19.75L11.8165 21.2539L9.60945 21.3516C7.5782 21.4492 7.36336 21.4883 7.0118 21.918C6.60164 22.4258 6.52352 23.3242 6.85555 23.9297C7.3243 24.8086 7.91024 24.8672 15.8985 24.8672H23.3985L23.9063 25.4727C24.4923 26.1562 24.5313 26.6055 24.1212 27.3867C23.672 28.2852 23.0274 28.3828 17.7345 28.3828H12.8712L12.4024 28.8711C11.9337 29.3203 11.9141 29.4375 11.9141 31.9961V34.6719L12.4805 35.2383L13.047 35.8047H18.4571C24.961 35.8047 25.1954 35.8633 25.1954 37.6602C25.1954 38.1484 25.0391 38.4414 24.5899 38.8125L23.9845 39.3203H18.6329C11.9337 39.3203 11.9337 39.3203 11.9141 41.8008V43.207L6.42586 43.2656L0.937579 43.3242L0.468829 43.8711C-0.175702 44.6328 -0.136639 45.4531 0.566485 46.1758L1.13289 46.7422H6.52352H11.9141V54.0469V61.3516L12.5196 61.8594C13.0079 62.2695 13.3204 62.3672 14.1798 62.3672C16.1329 62.3672 16.797 61.625 16.797 59.457C16.797 56.2148 19.1798 51.7812 22.1095 49.5742C26.4063 46.332 31.8751 45.668 36.504 47.8359C41.2891 50.082 44.1407 54.0469 44.7266 59.2812C44.9805 61.6055 45.0391 61.7227 45.7032 62.0742C46.1915 62.3281 47.8516 62.3672 56.7384 62.3672H67.2266L67.793 61.8008L68.3595 61.2148L68.3204 33.7148L68.2618 6.21484L67.7149 5.04297C66.797 3.08984 65.254 1.74219 63.2813 1.15625C62.3438 0.882812 59.7657 0.84375 40.0587 0.863281C27.8516 0.882812 17.5977 0.941406 17.2657 1.01953ZM34.4532 21.957C35.0391 22.6406 35.0782 23.0898 34.668 23.8906C34.2774 24.6523 33.2813 24.9258 31.3673 24.8281C30.0587 24.7695 29.8243 24.6914 29.3555 24.2422C28.6329 23.5195 28.6524 22.4258 29.3946 21.8008C29.8634 21.3906 30.0977 21.3516 31.9337 21.3516C33.9454 21.3516 33.9454 21.3516 34.4532 21.957ZM22.4805 43.793C23.2423 44.5742 23.2423 45.3945 22.4805 46.1758L21.9141 46.7422H18.7891C15.9766 46.7422 15.6251 46.7031 15.1759 46.3516C14.5704 45.8633 14.3555 45.082 14.668 44.3594C15.0587 43.3828 15.6055 43.2461 18.9063 43.2266H21.9141L22.4805 43.793Z" fill="white"/>
<path d="M72.4414 26.0195L71.875 26.5859V37.7383V48.8711L72.3438 49.418C73.0273 50.2188 74.0234 50.1602 75.3125 49.2227C82.9688 43.6953 93.7695 47.2109 96.8945 56.2539C97.1094 56.8789 97.3828 58.2656 97.5 59.3203C97.7344 61.4102 98.0273 61.9766 98.9062 61.9766C99.9805 61.9766 100 61.8203 100 53.1484C100 48.3633 99.9219 45.0039 99.8047 44.6914C99.4141 43.6562 99.0234 43.6172 89.7656 43.6172C81.6797 43.6172 81.2109 43.5977 80.1953 43.2266C78.1641 42.4648 76.6406 40.8438 75.9766 38.7539C75.625 37.6406 75.5859 36.9766 75.5859 32.0547V26.5859L75.0195 26.0195C74.5898 25.6094 74.2578 25.4531 73.7305 25.4531C73.2031 25.4531 72.8711 25.6094 72.4414 26.0195Z" fill="white"/>
<path d="M79.6875 26L79.1016 26.5859V31.9375C79.1016 36.7031 79.1406 37.3477 79.4727 38.0508C79.8828 38.9492 80.5273 39.5938 81.3086 39.8867C81.6602 40.0234 84.5703 40.1016 89.5508 40.1016H97.2266L97.7344 39.4961C98.0078 39.1641 98.2422 38.6953 98.2422 38.4219C98.2422 37.9727 96.0938 34.6523 92.7344 29.9062C91.2695 27.8164 89.9805 26.7422 88.1055 26C87.168 25.6289 86.543 25.5703 83.6523 25.4922L80.2734 25.4141L79.6875 26Z" fill="white"/>
<path d="M2.87118 32.6797C2.26571 33.168 2.05087 33.9492 2.36337 34.6719C2.71493 35.5312 3.45712 35.8047 5.37118 35.8047C7.6954 35.8047 8.379 35.3945 8.39853 33.9883C8.39853 33.4609 8.26181 33.1094 7.91025 32.7773C7.48056 32.3281 7.30478 32.2891 5.41025 32.2891C3.67196 32.2891 3.30087 32.3477 2.87118 32.6797Z" fill="white"/>
<path d="M28.6133 50.2969C26.8164 50.6289 24.8437 51.7422 23.3398 53.2656C21.1914 55.4336 20.3125 57.582 20.3125 60.6094C20.3125 63.6562 21.2109 65.8242 23.3203 67.9531C26.6797 71.3125 31.3867 72.0937 35.5859 69.9648C36.9727 69.2617 38.7891 67.6211 39.668 66.2539C41.7969 62.9336 41.7969 58.2852 39.6484 54.9453C38.7305 53.5195 36.8945 51.918 35.293 51.1562C33.1445 50.1211 30.957 49.8477 28.6133 50.2969Z" fill="#F88506"/>
<path d="M81.3477 50.2968C79.6094 50.6093 77.5586 51.7616 76.1523 53.1679C74.0625 55.2577 73.0469 57.6796 73.0469 60.6093C73.0469 63.539 74.0625 65.9608 76.1523 68.0507C78.75 70.6483 82.3633 71.703 85.8984 70.8632C88.5156 70.2382 90.8789 68.539 92.4219 66.1952C94.5508 62.9335 94.5508 58.3046 92.4219 55.0233C90 51.3124 85.7031 49.4569 81.3477 50.2968Z" fill="#F88506"/>
</svg>
